<?xml version="1.0" standalone="no"?>
<!DOCTYPE svg PUBLIC "-//W3C//DTD SVG 20010904//EN"
 "http://www.w3.org/TR/2001/REC-SVG-20010904/DTD/svg10.dtd">
<svg version="1.0" xmlns="http://www.w3.org/2000/svg"
 width="512.000000pt" height="512.000000pt" viewBox="0 0 512.000000 512.000000"
 preserveAspectRatio="xMidYMid meet">

<g transform="translate(0.000000,512.000000) scale(0.100000,-0.100000)"
fill="#000000" stroke="none">
<path d="M0 2560 l0 -2560 465 0 465 0 40 63 c22 34 44 67 50 74 5 7 10 14 10
17 0 6 75 126 90 143 5 7 10 15 10 18 0 4 14 26 30 50 17 24 30 48 30 54 0 6
5 11 10 11 6 0 10 4 10 10 0 5 17 36 38 69 l37 60 55 2 c30 2 69 3 85 4 17 0
38 5 48 9 9 5 31 6 47 4 18 -3 31 0 34 9 3 7 11 13 19 13 19 0 51 39 67 80 29
78 36 91 62 102 15 7 25 15 23 18 -4 6 48 21 120 35 17 3 91 6 165 6 1416 6
1329 7 1370 -15 46 -24 64 -46 105 -132 51 -106 52 -106 276 -105 120 0 189
-4 189 -10 0 -6 4 -8 8 -5 5 3 23 -11 41 -31 l32 -36 107 -1 c119 -2 147 7
177 56 9 16 15 41 12 54 -2 13 0 27 4 30 5 3 9 14 9 25 0 19 6 20 68 19 117
-3 128 -1 156 25 21 20 26 33 26 74 0 27 -4 61 -10 75 -6 18 -6 26 1 26 6 0 9
26 8 65 -2 63 -3 65 -33 76 l-31 11 0 207 c0 113 -3 215 -6 226 -11 39 -32 74
-40 69 -5 -3 -9 2 -9 11 0 9 -4 14 -9 11 -16 -11 -195 88 -208 114 -11 22 -17
523 -17 1660 0 90 9 130 30 130 8 0 13 4 10 9 -6 10 29 27 108 51 56 18 60 18
73 2 13 -15 13 -15 4 4 -9 18 -7 25 13 38 14 8 27 25 31 36 3 11 13 20 21 20
11 0 12 4 4 19 -11 22 -12 301 -1 341 4 14 14 24 24 24 17 -2 52 70 42 87 -4
5 -3 9 2 9 4 0 8 11 8 24 0 13 -3 22 -8 19 -7 -4 -12 24 -7 42 8 26 7 102 -2
118 -6 12 -5 17 4 17 7 1 0 7 -17 16 -22 11 -24 13 -7 10 12 -2 22 0 22 5 0 5
-38 9 -84 9 l-83 0 -2 67 c-2 84 -16 140 -40 152 -10 6 -83 10 -162 10 -136 0
-145 -1 -164 -22 -19 -21 -26 -22 -147 -19 l-128 3 40 59 c22 32 40 61 40 65
0 3 20 36 44 73 24 37 68 108 99 157 31 50 61 95 67 102 5 7 10 16 10 20 0 4
9 19 20 33 11 14 20 28 20 33 0 4 -927 7 -2060 7 l-2060 0 0 -2560z m1060
2034 c0 -14 -3 -14 -15 -4 -8 7 -15 14 -15 16 0 2 7 4 15 4 8 0 15 -7 15 -16z
m-222 -46 c7 -7 12 -43 12 -90 l0 -78 -45 0 -45 0 0 80 c0 65 3 81 18 89 23
14 45 14 60 -1z m156 -4 c14 -13 16 -51 16 -255 l0 -239 30 0 30 0 0 171 c0
94 3 169 8 167 4 -2 24 -12 45 -21 l37 -17 0 -150 0 -150 30 0 30 0 0 146 0
147 41 -7 c50 -8 95 -30 103 -51 3 -9 9 -668 12 -1465 l7 -1450 -267 0 c-295
0 -310 -3 -346 -63 -11 -18 -20 -48 -20 -68 0 -69 -37 -146 -82 -170 -17 -9
-18 3 -18 201 0 244 -6 230 110 276 89 35 153 92 169 149 8 28 9 289 5 895 -6
952 -3 917 -72 962 -20 14 -55 31 -77 38 -63 20 -113 48 -125 69 -6 12 -10 92
-10 192 l0 171 23 -14 c31 -21 45 -54 57 -136 12 -87 25 -117 57 -131 61 -28
156 2 169 54 3 14 3 40 0 58 -4 17 -7 42 -6 55 1 19 1 61 1 147 0 14 0 45 0
70 0 25 0 56 0 70 -1 14 0 47 2 74 2 40 -3 54 -20 73 -20 21 -23 35 -23 105 0
86 12 113 50 113 10 0 26 -7 34 -16z m3190 0 c13 -13 16 -43 16 -173 0 -109
-4 -161 -12 -169 -19 -19 -66 -15 -78 7 -5 11 -10 85 -10 170 0 158 6 181 50
181 10 0 26 -7 34 -16z m154 4 c8 -8 12 -63 12 -180 l0 -168 -24 -6 c-61 -15
-61 -15 -64 175 -2 133 1 176 10 183 19 12 52 10 66 -4z m-719 -1 c-2 -1 -12
-9 -22 -16 -15 -12 -17 -12 -11 3 3 9 13 16 22 16 8 0 13 -1 11 -3z m-65 -62
c-9 -14 -19 -24 -21 -21 -6 6 20 46 30 46 4 0 0 -11 -9 -25z m-2072 -12 c10
-9 34 -49 54 -90 37 -78 81 -120 152 -145 29 -10 214 -13 882 -13 780 0 847 1
876 17 50 27 86 69 129 148 22 40 50 80 63 88 20 13 57 15 210 14 102 -1 187
-4 190 -6 9 -9 -7 -35 -32 -51 -13 -9 -64 -23 -112 -30 -95 -16 -130 -33 -144
-71 -22 -57 -4 -151 36 -191 22 -22 31 -24 72 -19 26 4 57 6 70 6 12 -1 45 -1
72 -1 28 0 61 0 75 0 14 0 48 0 75 0 28 0 60 0 73 1 12 0 41 -2 64 -6 33 -5
51 -1 78 15 26 15 53 21 93 21 65 0 85 -9 80 -36 -7 -39 -42 -44 -295 -44
l-243 0 0 -30 0 -30 175 0 175 0 -17 -35 -17 -35 -158 0 -158 0 0 -35 0 -35
150 0 150 0 0 -23 c0 -59 94 -55 -1450 -59 l-1415 -3 -5 255 c-4 222 -7 260
-23 283 -25 38 -66 56 -162 72 -83 13 -115 25 -147 53 -39 34 -23 37 174 34
160 -3 196 -6 210 -19z m2558 -188 c0 -75 -2 -86 -21 -95 -16 -9 -26 -8 -45 5
-23 15 -25 21 -22 82 3 65 3 66 38 78 19 7 38 13 43 14 4 0 7 -37 7 -84z
m-150 -15 c0 -64 -2 -71 -22 -79 -31 -12 -56 13 -63 64 -7 49 3 65 46 75 19 4
35 8 37 9 1 1 2 -31 2 -69z m-2996 18 c8 -13 8 -23 0 -35 -10 -16 -31 -18
-154 -21 -96 -2 -147 1 -156 9 -17 14 -18 56 -1 63 6 2 77 4 156 3 125 -2 145
-4 155 -19z m3627 12 c10 -6 19 -19 19 -30 0 -26 -29 -40 -84 -40 l-46 0 0 40
0 40 46 0 c25 0 54 -5 65 -10z m-3633 -152 c16 -16 15 -33 -2 -51 -18 -17
-248 -24 -289 -8 -26 10 -38 47 -20 64 12 13 298 8 311 -5z m-7 -138 c21 -12
25 -40 7 -58 -7 -7 -33 -12 -59 -12 -41 0 -48 3 -53 24 -3 13 -9 31 -12 40 -5
13 2 16 46 16 28 0 60 -5 71 -10z m3587 -175 c-4 -205 -2 -201 -114 -234 -89
-26 -131 -55 -158 -106 -21 -40 -21 -44 -17 -915 2 -481 8 -888 12 -904 14
-49 66 -93 151 -127 120 -48 118 -43 118 -285 0 -112 -4 -204 -9 -204 -17 0
-59 40 -69 67 -6 15 -15 57 -21 93 -18 106 -59 144 -147 136 -71 -6 -112 -30
-131 -73 -13 -33 -13 -41 1 -76 9 -24 12 -45 7 -51 -16 -21 -20 -71 -8 -101
11 -24 11 -36 0 -67 -11 -33 -11 -44 2 -75 11 -27 12 -39 4 -50 -19 -23 -14
-91 10 -123 24 -33 30 -127 9 -148 -17 -17 -44 -15 -63 4 -14 15 -16 47 -14
263 2 234 1 246 -17 249 -46 6 -49 -7 -47 -178 1 -93 -2 -160 -7 -160 -5 0
-25 8 -45 17 l-35 17 0 148 0 148 -30 0 -30 0 0 -140 c0 -134 -1 -140 -20
-140 -12 0 -32 11 -45 25 l-25 24 0 1431 0 1430 266 0 c225 0 271 2 300 16 42
20 59 51 68 123 8 63 27 104 58 125 48 34 50 29 46 -159z m-3580 23 c10 -10
18 -48 9 -48 -1 0 -16 -4 -34 -9 -38 -11 -59 2 -69 42 -6 26 -5 27 38 27 24 0
49 -5 56 -12z m2782 -1308 l0 -1180 -1110 0 c-880 0 -1111 3 -1115 13 -6 18
-12 2336 -7 2342 3 3 506 5 1119 5 l1113 0 0 -1180z m-2860 -905 c0 -2 -9 -9
-20 -15 -12 -6 -20 -7 -20 -1 0 5 8 12 18 14 9 3 18 5 20 6 1 0 2 -1 2 -4z
m-140 -58 c0 -2 -15 -13 -32 -26 l-33 -22 28 25 c26 24 37 31 37 23z m-66 -72
c-6 -16 -24 -21 -24 -7 0 11 11 22 21 22 5 0 6 -7 3 -15z m3066 -445 c3 -153
9 -232 17 -247 22 -37 61 -60 133 -78 70 -17 130 -49 138 -72 3 -10 -37 -13
-180 -13 -100 0 -188 4 -194 8 -6 4 -30 43 -52 87 -46 92 -68 116 -137 146
l-49 22 -725 -2 c-777 -3 -904 -7 -945 -35 -35 -22 -95 -104 -103 -139 -3 -15
-18 -41 -33 -57 l-28 -30 -181 0 c-111 0 -181 4 -181 10 0 21 54 43 142 56
104 15 138 34 150 82 26 99 -68 184 -151 138 -21 -11 -30 -11 -57 0 -42 18
-62 18 -98 -1 -22 -12 -32 -13 -43 -3 -19 15 -98 15 -117 -1 -12 -10 -21 -9
-45 3 -41 22 -62 20 -105 -9 -32 -22 -48 -25 -122 -25 -91 0 -124 10 -124 38
0 40 15 42 277 42 l253 0 0 35 0 35 -175 0 c-96 0 -175 2 -175 4 0 3 9 21 21
40 l21 36 154 0 154 0 0 30 0 30 -150 0 -150 0 0 28 c0 16 6 37 14 48 14 18
33 19 448 24 238 3 874 3 1413 0 l980 -5 5 -225z m614 198 c9 -12 16 -30 16
-40 0 -16 -10 -18 -75 -18 -61 0 -76 3 -84 18 -18 33 21 61 86 62 32 0 45 -5
57 -22z m41 -164 c8 -20 15 -38 15 -40 0 -2 -43 -4 -95 -4 -81 0 -96 3 -104
18 -7 14 -6 25 5 40 13 19 25 22 89 22 l75 0 15 -36z m203 -148 c2 -16 -2 -32
-10 -37 -21 -14 -352 -11 -366 3 -13 13 -16 51 -5 62 4 3 90 5 192 4 l186 -3
3 -29z m-3997 -93 c-9 -15 -10 -12 -10 17 0 29 1 32 10 18 7 -12 7 -24 0 -35z
m387 15 c17 -17 17 -269 0 -286 -7 -7 -21 -12 -33 -12 -40 0 -45 18 -45 155 0
137 5 155 45 155 12 0 26 -5 33 -12z m146 6 c14 -5 16 -27 16 -143 0 -144 -5
-161 -45 -161 -40 0 -45 17 -45 157 0 115 2 133 18 142 20 12 34 13 56 5z
m150 0 c11 -4 16 -19 16 -53 0 -46 -1 -47 -40 -58 -22 -6 -42 -8 -44 -4 -6 10
1 98 8 110 8 12 36 14 60 5z m152 -2 c16 -10 25 -45 15 -60 -4 -7 -24 -17 -45
-22 -39 -9 -42 -5 -37 50 3 35 38 52 67 32z m3159 -72 l0 -35 -190 0 -190 0
-3 23 c-7 49 6 53 202 50 l181 -3 0 -35z m-3745 -5 l0 -36 -97 3 c-85 3 -98 5
-101 21 -8 42 3 47 103 47 l95 0 0 -35z m-213 -92 c15 -11 13 -13 -15 -13 -29
0 -32 3 -32 33 1 31 1 31 16 12 8 -11 22 -26 31 -32z m3704 -35 c3 -68 -10
-98 -42 -98 -26 0 -49 38 -49 82 l0 38 45 0 c40 0 45 -3 46 -22z"/>
<path d="M1080 3223 c-40 -37 -50 -89 -22 -123 17 -21 22 -22 36 -11 20 17 21
55 0 75 -19 19 -12 32 21 40 65 16 115 -51 115 -154 0 -54 -2 -61 -15 -50 -9
7 -13 21 -9 35 10 38 -15 39 -33 1 -16 -35 -16 -37 4 -64 18 -25 19 -30 6 -47
-12 -17 -15 -18 -23 -5 -5 8 -10 21 -10 28 0 15 -6 15 -31 2 -10 -6 -19 -21
-19 -35 0 -13 -11 -37 -25 -53 -37 -45 -32 -52 34 -52 32 0 73 -3 90 -6 27 -6
31 -10 31 -40 l0 -34 -75 0 c-63 0 -76 -3 -85 -19 -16 -31 -12 -70 12 -112 15
-28 18 -42 11 -51 -6 -7 -16 -40 -22 -72 -6 -32 -22 -84 -36 -114 -14 -30 -23
-57 -20 -60 9 -9 42 28 60 68 l18 39 21 -32 c46 -69 95 -36 106 71 l7 67 2
-97 c0 -53 -2 -103 -5 -112 -5 -13 -22 -16 -86 -16 -65 0 -83 -3 -94 -17 -7
-10 -14 -21 -14 -25 0 -5 46 -8 101 -8 l102 0 -7 -32 c-4 -18 -10 -48 -13 -66
l-6 -33 -24 41 c-24 40 -26 41 -44 24 -10 -9 -19 -24 -19 -33 0 -40 -24 -96
-57 -132 l-35 -39 101 0 101 0 0 -26 c0 -22 2 -25 15 -14 12 10 15 42 15 166
0 143 1 154 20 164 27 14 25 30 -2 30 l-23 0 3 427 c2 306 -1 436 -9 456 -31
75 -114 99 -169 50z m141 -376 c-13 -13 -15 31 -3 60 5 14 8 10 10 -16 2 -18
-1 -38 -7 -44z m-81 23 c0 -5 -4 -10 -10 -10 -5 0 -10 5 -10 10 0 6 5 10 10
10 6 0 10 -4 10 -10z m35 -207 c-4 -10 -10 -28 -12 -40 -3 -13 -9 -23 -13 -23
-9 0 -35 29 -49 58 -11 21 -10 22 35 22 40 0 45 -2 39 -17z m46 -86 c-5 -5
-14 -6 -20 -3 -12 8 -6 42 13 86 10 23 11 21 14 -24 2 -27 -1 -53 -7 -59z
m-71 -132 c7 -14 17 -25 22 -25 4 0 8 -7 8 -15 0 -25 -19 -17 -40 18 -13 20
-20 48 -19 77 l1 45 8 -38 c4 -21 13 -49 20 -62z m42 60 c-5 -28 -17 -33 -26
-9 -10 26 -7 34 13 34 14 0 17 -6 13 -25z m-8 -459 c3 -6 13 -1 25 13 l21 23
0 -31 0 -31 -60 0 -59 0 21 36 c20 33 23 35 34 19 7 -10 15 -23 18 -29z"/>
<path d="M1054 2126 c-10 -25 0 -61 18 -64 19 -4 32 29 23 58 -7 23 -33 27
-41 6z"/>
<path d="M3893 3227 c-9 -19 -13 -85 -13 -206 0 -175 0 -178 -24 -201 -27 -24
-56 -21 -56 6 0 13 -3 14 -15 4 -30 -25 -11 -70 30 -70 11 0 31 7 43 16 22 15
22 15 22 -44 0 -44 -4 -61 -15 -66 -28 -10 -15 -26 21 -26 34 0 35 -1 20 -22
-21 -30 -21 -126 0 -156 10 -15 24 -22 37 -20 19 3 22 9 21 50 0 37 3 45 13
37 7 -6 15 -20 19 -31 6 -18 7 -19 25 -2 26 23 24 35 -10 68 -34 32 -56 30
-71 -9 -12 -32 -20 -32 -20 -1 0 14 10 37 23 52 20 23 31 27 86 28 54 1 66 4
78 24 l15 22 -106 0 -106 0 0 70 c0 54 4 72 15 77 20 7 54 -23 72 -64 30 -72
93 -23 93 72 0 38 -5 52 -29 76 -36 36 -67 37 -115 4 l-36 -24 0 129 0 130 36
0 c20 0 34 -3 32 -7 -41 -81 -43 -126 -6 -160 30 -27 52 -6 56 51 3 44 -2 52
-30 47 -5 0 -8 5 -8 12 0 21 44 57 86 72 71 24 53 35 -60 35 l-105 0 -3 27 -3
28 -12 -28z m140 -347 c32 -25 43 -68 23 -88 -13 -13 -16 -11 -29 21 -9 19
-28 43 -42 53 -25 16 -26 19 -9 25 28 11 29 11 57 -11z"/>
<path d="M4078 2428 c-34 -43 -88 -129 -88 -141 0 -4 11 -7 25 -7 21 0 31 13
67 83 24 45 44 88 46 95 7 25 -17 11 -50 -30z"/>
<path d="M3903 2376 c-13 -28 -14 -40 -4 -67 9 -26 8 -37 -4 -55 -12 -18 -15
-57 -15 -186 l1 -163 24 30 c14 17 25 43 25 61 0 16 6 39 14 49 14 19 15 19
35 1 25 -23 27 -42 4 -50 -15 -6 -15 -8 1 -24 16 -16 18 -16 36 8 28 36 25 70
-11 113 -43 53 -36 71 28 75 42 2 54 8 67 27 l16 25 -105 0 -105 0 0 25 c0 21
5 25 30 25 34 0 50 23 50 70 0 75 -57 98 -87 36z m57 -48 c0 -17 -3 -18 -15
-8 -8 7 -15 21 -15 32 0 17 3 18 15 8 8 -7 15 -21 15 -32z m-8 -170 c-7 -7
-12 -24 -12 -39 0 -15 -7 -32 -15 -39 -13 -11 -15 -6 -15 39 0 49 1 51 27 51
21 0 24 -3 15 -12z"/>
<path d="M2221 3656 c-29 -30 -24 -60 10 -64 29 -3 57 23 61 59 4 35 -40 39
-71 5z"/>
<path d="M2105 3623 c13 -82 17 -92 36 -109 29 -26 90 -23 134 7 42 29 81 98
71 124 -6 16 -13 12 -50 -28 -33 -36 -50 -47 -73 -47 -34 0 -60 24 -65 60 -2
19 -10 26 -31 28 -27 3 -28 2 -22 -35z"/>
<path d="M2432 3509 c-5 -13 -13 -40 -17 -59 -10 -49 -14 -52 -38 -35 -18 12
-65 15 -279 15 -142 0 -258 -3 -258 -6 0 -3 9 -19 21 -35 l20 -29 157 0 c86 0
152 -4 147 -8 -6 -5 -39 -19 -75 -32 -53 -18 -255 -113 -269 -126 -1 -1 4 -25
13 -52 16 -47 20 -51 63 -62 71 -17 117 -69 136 -153 15 -66 23 -85 31 -76 2
2 42 117 88 254 l86 250 35 3 c29 3 39 -2 53 -23 17 -27 17 -30 -50 -230 l-69
-203 23 -32 c12 -17 24 -29 26 -27 3 3 174 507 174 514 0 2 22 3 50 3 l50 0
-20 33 c-11 17 -30 35 -42 38 -19 4 -23 12 -23 41 0 48 -21 71 -33 37z m-314
-360 c-34 -102 -38 -111 -46 -89 -3 8 -25 36 -50 62 -25 27 -43 51 -40 54 8 8
162 74 165 70 2 -1 -11 -45 -29 -97z"/>
<path d="M2645 3435 c-57 -20 -85 -56 -85 -109 0 -34 5 -47 22 -58 22 -15 22
-16 -35 -48 -31 -17 -60 -36 -63 -42 -3 -5 1 -29 10 -53 15 -37 21 -43 54 -49
45 -7 104 -53 125 -98 8 -18 18 -59 22 -90 4 -32 11 -58 16 -58 5 0 9 4 9 9 0
5 39 124 86 265 l86 256 189 0 c104 0 189 -3 189 -7 0 -5 -12 -44 -26 -88 -26
-80 -44 -113 -44 -84 0 25 -67 96 -96 102 -83 16 -194 -77 -196 -165 -1 -40
24 -58 80 -58 58 0 102 41 102 94 0 20 4 36 8 36 14 0 50 -43 61 -73 14 -36
14 -132 1 -195 -7 -29 -7 -57 -2 -72 7 -20 24 22 98 241 l89 264 48 3 c26 2
47 7 47 11 0 5 -9 20 -21 35 l-20 26 -279 0 -278 0 -7 -30 c-6 -25 -19 -37
-77 -66 -78 -39 -111 -41 -116 -6 -3 18 1 22 25 22 31 0 73 32 73 55 0 13 -37
46 -50 45 -3 -1 -23 -7 -45 -15z m135 -192 c0 -5 -14 -50 -31 -101 l-31 -94
-47 53 c-25 29 -46 57 -46 63 0 9 131 86 148 86 4 0 7 -3 7 -7z"/>
<path d="M2561 2698 c-22 -72 -74 -177 -153 -308 -138 -228 -161 -292 -161
-435 0 -103 19 -161 74 -229 73 -92 163 -132 282 -124 161 11 279 124 309 296
22 130 -15 247 -147 467 -87 143 -162 294 -171 341 -8 45 -18 43 -33 -8z m41
-291 c14 -32 18 -78 20 -197 3 -135 1 -159 -15 -183 -23 -35 -33 -34 -57 5
-32 53 -36 126 -10 209 12 39 24 103 27 140 3 38 9 69 12 69 3 0 14 -19 23
-43z m10 -503 c37 -42 74 -62 131 -73 l42 -8 -46 -45 c-48 -47 -104 -69 -171
-67 -62 1 -145 45 -172 90 l-17 29 28 0 c43 1 105 33 138 73 17 19 31 36 33
36 1 1 17 -15 34 -35z"/>
<path d="M2444 1230 c6 -30 5 -31 -16 -15 -19 13 -78 15 -425 15 -222 0 -403
-4 -403 -8 0 -21 29 -32 85 -32 l60 0 -54 -30 c-30 -17 -56 -32 -58 -34 -11
-11 25 -46 52 -52 18 -4 49 -26 78 -57 l47 -51 0 112 0 112 190 0 190 0 0 -58
c0 -46 4 -63 19 -76 19 -17 21 -17 51 18 39 44 58 47 53 9 -5 -32 17 -105 32
-110 6 -2 9 18 7 51 -3 37 2 64 13 87 16 31 16 33 -1 46 -33 24 -85 9 -121
-35 -11 -13 -13 -9 -13 26 l0 43 103 -3 102 -3 3 -94 c3 -88 12 -121 33 -121
5 0 9 50 9 110 0 102 1 110 19 110 14 0 28 -18 49 -65 43 -90 70 -115 125
-115 57 0 97 29 97 71 0 58 -35 98 -86 99 -44 0 -66 -20 -62 -55 3 -27 7 -30
38 -30 29 0 36 4 38 23 4 25 20 25 35 0 14 -21 2 -46 -27 -59 -49 -23 -94 5
-141 88 l-24 43 140 0 139 0 10 -26 c6 -14 10 -58 10 -98 0 -53 4 -77 15 -86
13 -11 15 1 15 99 l0 111 45 0 c48 0 52 -4 30 -34 -8 -11 -15 -41 -15 -67 0
-59 36 -109 80 -109 54 0 70 62 17 68 -25 3 -32 -5 -28 -30 3 -20 -18 -5 -28
21 -19 44 1 107 42 131 56 35 67 28 67 -39 0 -42 5 -64 16 -76 15 -15 19 -13
49 19 18 20 38 36 44 36 6 0 11 -19 12 -42 1 -54 11 -90 26 -95 8 -3 11 13 10
49 0 30 5 69 13 88 13 31 12 34 -9 51 -21 17 -25 18 -54 3 -18 -9 -40 -23 -49
-32 -17 -14 -18 -13 -18 21 l0 37 148 0 147 -1 -57 -31 c-32 -17 -58 -37 -58
-44 0 -16 35 -39 72 -48 15 -3 42 -24 59 -46 18 -22 36 -37 41 -34 5 3 8 49 7
102 -2 83 1 97 15 100 20 4 21 18 0 26 -9 3 -152 6 -319 6 -302 0 -303 0 -318
23 l-16 22 0 -25 -1 -25 -182 7 c-149 5 -184 9 -194 22 -18 25 -27 19 -20 -14z
m-674 -130 l0 -39 -34 22 c-36 24 -37 33 -2 47 34 14 36 12 36 -30z m1670 0
l0 -40 -35 22 c-41 27 -42 31 -12 46 39 19 47 14 47 -28z"/>
<path d="M1939 1151 c-25 -26 -28 -34 -19 -51 6 -11 20 -20 30 -20 19 0 22 5
24 40 1 17 66 28 66 11 0 -6 -8 -11 -19 -11 -10 0 -24 -7 -31 -15 -16 -19 3
-45 31 -45 22 0 25 -13 5 -29 -33 -28 -99 17 -136 93 -23 48 -46 63 -35 24 27
-91 93 -168 143 -168 47 0 66 22 67 75 0 34 5 49 18 56 18 11 37 4 37 -12 0
-6 -5 -7 -10 -4 -19 12 -41 -15 -29 -36 19 -36 69 -10 69 36 0 32 -42 61 -67
47 -13 -8 -19 -5 -28 11 -7 16 -21 23 -48 25 -31 3 -43 -2 -68 -27z"/>
<path d="M1693 1043 c-19 -7 -16 -40 4 -47 9 -4 23 0 31 8 13 12 13 18 2 30
-13 17 -17 18 -37 9z"/>
<path d="M3357 1044 c-13 -13 -7 -42 10 -48 21 -8 36 6 31 30 -3 19 -29 30
-41 18z"/>
<path d="M4310 3490 c0 -5 7 -7 15 -4 8 4 15 8 15 10 0 2 -7 4 -15 4 -8 0 -15
-4 -15 -10z"/>
</g>
</svg>
